# This file uses feet as units for non-parametric coordinates.

mtllib CandleUV.mtl
g default
v 80.944091 3.877404 25.222202
v 80.828074 3.877404 24.994507
v 80.647375 3.877404 24.813808
v 80.419680 3.877404 24.697792
v 80.167279 3.877404 24.657815
v 79.914878 3.877404 24.697792
v 79.687183 3.877404 24.813808
v 79.506484 3.877404 24.994507
v 79.390468 3.877404 25.222202
v 79.350491 3.877404 25.474603
v 79.390468 3.877404 25.727004
v 79.506484 3.877404 25.954699
v 79.687183 3.877404 26.135398
v 79.914878 3.877404 26.251414
v 80.167279 3.877404 26.291391
v 80.419680 3.877404 26.251414
v 80.647375 3.877404 26.135398
v 80.828074 3.877404 25.954699
v 80.944090 3.877404 25.727004
v 80.984066 3.877404 25.474603
v 80.944090 5.404143 25.222202
v 80.828074 5.404143 24.994508
v 80.647374 5.404143 24.813808
v 80.419680 5.404143 24.697792
v 80.167279 5.404143 24.657816
v 79.914877 5.404143 24.697792
v 79.687183 5.404143 24.813808
v 79.506484 5.404143 24.994508
v 79.390467 5.404143 25.222202
v 79.350491 5.404143 25.474604
v 79.390467 5.404143 25.727005
v 79.506484 5.404143 25.954699
v 79.687183 5.404143 26.135399
v 79.914877 5.404143 26.251415
v 80.167279 5.404143 26.291391
v 80.419680 5.404143 26.251415
v 80.647374 5.404143 26.135398
v 80.828074 5.404143 25.954699
v 80.944090 5.404143 25.727005
v 80.984066 5.404143 25.474604
v 80.167279 3.877404 25.474603
v 80.167279 5.819543 25.474604
vt 0.331407 0.765315
vt 0.309388 0.722101
vt 0.275093 0.687806
vt 0.231879 0.665787
vt 0.183976 0.658200
vt 0.136073 0.665787
vt 0.092859 0.687806
vt 0.058564 0.722101
vt 0.036545 0.765315
vt 0.028958 0.813218
vt 0.036545 0.861121
vt 0.058564 0.904335
vt 0.092859 0.938630
vt 0.136073 0.960649
vt 0.183976 0.968236
vt 0.231879 0.960649
vt 0.275093 0.938630
vt 0.309388 0.904335
vt 0.331407 0.861121
vt 0.338994 0.813218
vt 0.111221 0.029801
vt 0.151487 0.029801
vt 0.191753 0.029801
vt 0.232019 0.029801
vt 0.272286 0.029801
vt 0.312552 0.029801
vt 0.352818 0.029801
vt 0.393084 0.029801
vt 0.433351 0.029801
vt 0.473617 0.029801
vt 0.513883 0.029801
vt 0.554149 0.029801
vt 0.594415 0.029801
vt 0.634682 0.029801
vt 0.674948 0.029801
vt 0.715214 0.029801
vt 0.755480 0.029801
vt 0.795747 0.029801
vt 0.836013 0.029801
vt 0.876279 0.029801
vt 0.916546 0.029801
vt 0.111221 0.318678
vt 0.151487 0.318678
vt 0.191753 0.318678
vt 0.232019 0.318678
vt 0.272286 0.318678
vt 0.312552 0.318678
vt 0.352818 0.318678
vt 0.393084 0.318678
vt 0.433351 0.318678
vt 0.473617 0.318678
vt 0.513883 0.318678
vt 0.554149 0.318678
vt 0.594415 0.318678
vt 0.634682 0.318678
vt 0.674948 0.318678
vt 0.715214 0.318678
vt 0.755480 0.318678
vt 0.795747 0.318678
vt 0.836013 0.318678
vt 0.876279 0.318678
vt 0.916546 0.318678
vt 0.341227 0.442446
vt 0.319241 0.399297
vt 0.284998 0.365054
vt 0.241849 0.343068
vt 0.194017 0.335492
vt 0.146186 0.343068
vt 0.103037 0.365054
vt 0.068794 0.399297
vt 0.046808 0.442446
vt 0.039232 0.490277
vt 0.046808 0.538109
vt 0.068794 0.581258
vt 0.103037 0.615501
vt 0.146186 0.637487
vt 0.194017 0.645063
vt 0.241849 0.637487
vt 0.284998 0.615501
vt 0.319241 0.581258
vt 0.341227 0.538109
vt 0.348803 0.490277
vt 0.183976 0.813218
vt 0.194017 0.490277
vn 0.951057 0.000000 -0.309016
vn 0.809017 0.000000 -0.587785
vn 0.809017 0.000000 -0.587785
vn 0.951057 0.000000 -0.309016
vn 0.587785 0.000000 -0.809017
vn 0.587785 0.000000 -0.809017
vn 0.309017 0.000000 -0.951057
vn 0.309017 0.000000 -0.951057
vn -0.000000 0.000000 -1.000000
vn -0.000000 0.000000 -1.000000
vn -0.309017 0.000000 -0.951056
vn -0.309017 0.000000 -0.951056
vn -0.587786 0.000000 -0.809017
vn -0.587786 0.000000 -0.809017
vn -0.809017 -0.000000 -0.587785
vn -0.809017 -0.000000 -0.587785
vn -0.951057 -0.000000 -0.309017
vn -0.951057 -0.000000 -0.309017
vn -1.000000 -0.000000 -0.000000
vn -1.000000 -0.000000 0.000000
vn -0.951056 -0.000000 0.309017
vn -0.951056 -0.000000 0.309017
vn -0.809017 -0.000000 0.587785
vn -0.809017 -0.000000 0.587785
vn -0.587785 -0.000000 0.809017
vn -0.587785 -0.000000 0.809017
vn -0.309017 -0.000000 0.951056
vn -0.309017 -0.000000 0.951056
vn 0.000000 -0.000000 1.000000
vn -0.000000 -0.000000 1.000000
vn 0.309017 -0.000000 0.951056
vn 0.309017 -0.000000 0.951057
vn 0.587785 -0.000000 0.809017
vn 0.587785 -0.000000 0.809017
vn 0.809017 0.000000 0.587785
vn 0.809017 0.000000 0.587785
vn 0.951057 0.000000 0.309017
vn 0.951056 0.000000 0.309017
vn 1.000000 0.000000 0.000001
vn 1.000000 0.000000 0.000001
vn 0.000000 -1.000000 0.000000
vn 0.000000 -1.000000 0.000000
vn 0.000000 -1.000000 0.000000
vn 0.000000 -1.000000 0.000000
vn 0.000000 -1.000000 0.000000
vn 0.000000 -1.000000 0.000000
vn 0.000000 -1.000000 0.000000
vn 0.000000 -1.000000 0.000000
vn 0.000000 -1.000000 0.000000
vn 0.000000 -1.000000 0.000000
vn 0.000000 -1.000000 0.000000
vn 0.000000 -1.000000 -0.000000
vn 0.000000 -1.000000 0.000000
vn 0.000000 -1.000000 0.000000
vn 0.000000 -1.000000 0.000000
vn 0.000000 -1.000000 0.000000
vn 0.000000 -1.000000 0.000000
vn 0.000000 -1.000000 0.000000
vn 0.000000 -1.000000 0.000000
vn 0.000000 -1.000000 0.000000
vn 0.000000 -1.000000 -0.000000
vn 0.431133 0.891348 -0.140083
vn 0.366743 0.891348 -0.266454
vn 0.000000 1.000000 -0.000000
vn 0.266454 0.891348 -0.366743
vn 0.140083 0.891348 -0.431132
vn -0.000000 0.891348 -0.453320
vn -0.140083 0.891348 -0.431132
vn -0.266455 0.891348 -0.366743
vn -0.366743 0.891348 -0.266455
vn -0.431133 0.891348 -0.140083
vn -0.453320 0.891348 -0.000000
vn -0.431133 0.891348 0.140083
vn -0.366743 0.891348 0.266455
vn -0.266455 0.891348 0.366743
vn -0.140083 0.891348 0.431133
vn 0.000000 0.891348 0.453320
vn 0.140084 0.891348 0.431133
vn 0.266455 0.891348 0.366743
vn 0.366743 0.891348 0.266455
vn 0.431133 0.891348 0.140083
vn 0.453320 0.891348 0.000000
s 1
g pCylinder5
usemtl lambert4SG
f 1/21/1 2/22/2 22/43/3 21/42/4
f 2/22/2 3/23/5 23/44/6 22/43/3
f 3/23/5 4/24/7 24/45/8 23/44/6
f 4/24/7 5/25/9 25/46/10 24/45/8
f 5/25/9 6/26/11 26/47/12 25/46/10
f 6/26/11 7/27/13 27/48/14 26/47/12
f 7/27/13 8/28/15 28/49/16 27/48/14
f 8/28/15 9/29/17 29/50/18 28/49/16
f 9/29/17 10/30/19 30/51/20 29/50/18
f 10/30/19 11/31/21 31/52/22 30/51/20
f 11/31/21 12/32/23 32/53/24 31/52/22
f 12/32/23 13/33/25 33/54/26 32/53/24
f 13/33/25 14/34/27 34/55/28 33/54/26
f 14/34/27 15/35/29 35/56/30 34/55/28
f 15/35/29 16/36/31 36/57/32 35/56/30
f 16/36/31 17/37/33 37/58/34 36/57/32
f 17/37/33 18/38/35 38/59/36 37/58/34
f 18/38/35 19/39/37 39/60/38 38/59/36
f 19/39/37 20/40/39 40/61/40 39/60/38
f 20/40/39 1/41/1 21/62/4 40/61/40
s 2
f 2/2/41 1/1/42 41/83/43
f 3/3/44 2/2/41 41/83/43
f 4/4/45 3/3/44 41/83/43
f 5/5/46 4/4/45 41/83/43
f 6/6/47 5/5/46 41/83/43
f 7/7/48 6/6/47 41/83/43
f 8/8/49 7/7/48 41/83/43
f 9/9/50 8/8/49 41/83/43
f 10/10/51 9/9/50 41/83/43
f 11/11/52 10/10/51 41/83/43
f 12/12/53 11/11/52 41/83/43
f 13/13/54 12/12/53 41/83/43
f 14/14/55 13/13/54 41/83/43
f 15/15/56 14/14/55 41/83/43
f 16/16/57 15/15/56 41/83/43
f 17/17/58 16/16/57 41/83/43
f 18/18/59 17/17/58 41/83/43
f 19/19/60 18/18/59 41/83/43
f 20/20/61 19/19/60 41/83/43
f 1/1/42 20/20/61 41/83/43
s 3
f 21/81/62 22/80/63 42/84/64
f 22/80/63 23/79/65 42/84/64
f 23/79/65 24/78/66 42/84/64
f 24/78/66 25/77/67 42/84/64
f 25/77/67 26/76/68 42/84/64
f 26/76/68 27/75/69 42/84/64
f 27/75/69 28/74/70 42/84/64
f 28/74/70 29/73/71 42/84/64
f 29/73/71 30/72/72 42/84/64
f 30/72/72 31/71/73 42/84/64
f 31/71/73 32/70/74 42/84/64
f 32/70/74 33/69/75 42/84/64
f 33/69/75 34/68/76 42/84/64
f 34/68/76 35/67/77 42/84/64
f 35/67/77 36/66/78 42/84/64
f 36/66/78 37/65/79 42/84/64
f 37/65/79 38/64/80 42/84/64
f 38/64/80 39/63/81 42/84/64
f 39/63/81 40/82/82 42/84/64
f 40/82/82 21/81/62 42/84/64
g default
v 80.213609 5.709911 25.476619
v 80.212640 5.709911 25.465521
v 80.208288 5.709911 25.455265
v 80.200981 5.709911 25.446856
v 80.191432 5.709911 25.441117
v 80.180577 5.709911 25.438609
v 80.169479 5.709911 25.439578
v 80.159223 5.709911 25.443930
v 80.150814 5.709911 25.451237
v 80.145075 5.709911 25.460786
v 80.142567 5.709911 25.471641
v 80.143536 5.709911 25.482739
v 80.147888 5.709911 25.492995
v 80.155195 5.709911 25.501404
v 80.164744 5.709911 25.507143
v 80.175599 5.709911 25.509651
v 80.186697 5.709911 25.508682
v 80.196953 5.709911 25.504330
v 80.205362 5.709911 25.497023
v 80.211101 5.709911 25.487474
v 80.213609 5.946611 25.476619
v 80.212640 5.946611 25.465521
v 80.208288 5.946611 25.455265
v 80.200981 5.946611 25.446856
v 80.191432 5.946611 25.441117
v 80.180577 5.946611 25.438609
v 80.169479 5.946611 25.439578
v 80.159223 5.946611 25.443930
v 80.150814 5.946611 25.451237
v 80.145075 5.946611 25.460786
v 80.142567 5.946611 25.471641
v 80.143536 5.946611 25.482739
v 80.147888 5.946611 25.492995
v 80.155195 5.946611 25.501404
v 80.164744 5.946611 25.507143
v 80.175599 5.946611 25.509651
v 80.186697 5.946611 25.508682
v 80.196953 5.946611 25.504330
v 80.205362 5.946611 25.497023
v 80.211101 5.946611 25.487474
v 80.178088 5.709911 25.474130
v 80.178088 5.946611 25.474130
v 80.164280 5.866074 25.506940
v 80.160430 5.876015 25.503703
v 80.158309 5.885071 25.497571
v 80.158124 5.892356 25.489144
v 80.159892 5.897158 25.479248
v 80.163442 5.899005 25.468851
v 80.168426 5.897718 25.458971
v 80.174355 5.893422 25.450574
v 80.180650 5.886537 25.444484
v 80.186694 5.877739 25.441295
v 80.191895 5.867887 25.441321
v 80.195745 5.857946 25.444558
v 80.197867 5.848890 25.450689
v 80.198052 5.841605 25.459116
v 80.196283 5.836803 25.469012
v 80.192733 5.834956 25.479409
v 80.187750 5.836243 25.489289
v 80.181820 5.840539 25.497686
v 80.175526 5.847424 25.503776
v 80.169482 5.856222 25.506965
vt 0.974081 0.743087
vt 0.969606 0.734303
vt 0.962635 0.727333
vt 0.953852 0.722857
vt 0.944115 0.721315
vt 0.934379 0.722857
vt 0.925595 0.727333
vt 0.918624 0.734303
vt 0.914149 0.743087
vt 0.912607 0.752823
vt 0.914149 0.762560
vt 0.918624 0.771343
vt 0.925595 0.778314
vt 0.934379 0.782789
vt 0.944115 0.784332
vt 0.953852 0.782789
vt 0.962635 0.778314
vt 0.969606 0.771343
vt 0.974081 0.762560
vt 0.975623 0.752823
vt 0.913421 0.801126
vt 0.916492 0.801126
vt 0.919562 0.801126
vt 0.922633 0.801126
vt 0.925703 0.801126
vt 0.928774 0.801126
vt 0.931844 0.801126
vt 0.934915 0.801126
vt 0.937985 0.801126
vt 0.941056 0.801126
vt 0.944126 0.801126
vt 0.947197 0.801126
vt 0.950267 0.801126
vt 0.953338 0.801126
vt 0.956408 0.801126
vt 0.959479 0.801126
vt 0.962549 0.801126
vt 0.965620 0.801126
vt 0.968690 0.801126
vt 0.971760 0.801126
vt 0.974831 0.801126
vt 0.913421 0.893240
vt 0.916492 0.893240
vt 0.919562 0.893240
vt 0.922633 0.893240
vt 0.925703 0.893240
vt 0.928774 0.893240
vt 0.931844 0.893240
vt 0.934915 0.893240
vt 0.937985 0.893240
vt 0.941056 0.893240
vt 0.944126 0.893240
vt 0.947197 0.893240
vt 0.950267 0.893240
vt 0.953338 0.893240
vt 0.956408 0.893240
vt 0.959479 0.893240
vt 0.962549 0.893240
vt 0.965620 0.893240
vt 0.968690 0.893240
vt 0.971760 0.893240
vt 0.974831 0.893240
vt 0.975049 0.938127
vt 0.970533 0.929262
vt 0.963497 0.922227
vt 0.954633 0.917710
vt 0.944806 0.916154
vt 0.934980 0.917710
vt 0.926115 0.922227
vt 0.919080 0.929262
vt 0.914563 0.938127
vt 0.913007 0.947953
vt 0.914563 0.957780
vt 0.919080 0.966644
vt 0.926115 0.973679
vt 0.934980 0.978196
vt 0.944806 0.979752
vt 0.954633 0.978196
vt 0.963497 0.973679
vt 0.970532 0.966644
vt 0.975049 0.957780
vt 0.976606 0.947953
vt 0.944115 0.752823
vt 0.944806 0.947953
vt 0.956408 0.862251
vt 0.953338 0.862251
vt 0.950267 0.862251
vt 0.947197 0.862251
vt 0.944126 0.862251
vt 0.941056 0.862251
vt 0.937985 0.862251
vt 0.934915 0.862251
vt 0.931844 0.862251
vt 0.928774 0.862251
vt 0.925703 0.862251
vt 0.922633 0.862251
vt 0.919562 0.862251
vt 0.916492 0.862251
vt 0.974831 0.862251
vt 0.913421 0.862251
vt 0.971760 0.862251
vt 0.968690 0.862251
vt 0.965620 0.862251
vt 0.962549 0.862251
vt 0.959479 0.862251
vn 0.971844 0.141159 0.188660
vn 0.993034 0.108705 -0.045454
vn 0.994353 0.000559 -0.106125
vn 0.987900 0.002812 0.155065
vn 0.936320 0.062611 -0.345522
vn 0.912500 -0.002576 -0.409068
vn 0.729823 0.019869 -0.683347
vn 0.694420 -0.004154 -0.719558
vn 0.356232 0.004453 -0.934387
vn 0.343206 0.000630 -0.939260
vn -0.059914 0.021443 -0.997973
vn -0.053088 0.005313 -0.998576
vn -0.398275 0.052343 -0.915771
vn -0.398124 0.002722 -0.917328
vn -0.640306 0.080317 -0.763910
vn -0.646951 -0.001528 -0.762530
vn -0.807774 0.098043 -0.581282
vn -0.814624 -0.004339 -0.579973
vn -0.919654 0.103342 -0.378890
vn -0.924427 -0.005162 -0.381324
vn -0.983264 0.095833 -0.154945
vn -0.986939 -0.003971 -0.161046
vn -0.992306 0.076084 0.097673
vn -0.995673 -0.000826 0.092922
vn -0.922079 0.046849 0.384156
vn -0.921980 0.003485 0.387223
vn -0.725970 0.016867 0.687520
vn -0.721728 0.005107 0.692158
vn -0.368994 0.004525 0.929421
vn -0.387365 -0.000617 0.921926
vn 0.072110 0.025947 0.997059
vn 0.017275 -0.004225 0.999842
vn 0.438847 0.071019 0.895751
vn 0.378235 -0.002025 0.925708
vn 0.676024 0.115586 0.727758
vn 0.637944 0.001040 0.770082
vn 0.820260 0.144826 0.553352
vn 0.811748 0.003067 0.584000
vn 0.912419 0.153659 0.379315
vn 0.924620 0.003675 0.380874
vn -0.000000 -1.000000 0.000001
vn -0.000000 -1.000000 0.000000
vn -0.000000 -1.000000 0.000000
vn 0.000000 -1.000000 0.000000
vn 0.000000 -1.000000 0.000000
vn 0.000000 -1.000000 0.000000
vn 0.000000 -1.000000 0.000000
vn 0.000000 -1.000000 0.000000
vn 0.000000 -1.000000 0.000000
vn -0.000000 -1.000000 0.000001
vn 0.000000 -1.000000 0.000000
vn 0.000000 -1.000000 -0.000001
vn 0.000000 -1.000000 0.000000
vn 0.000000 -1.000000 0.000000
vn -0.000000 -1.000000 0.000000
vn -0.000000 -1.000000 0.000000
vn 0.000000 -1.000000 0.000000
vn 0.000000 -1.000000 0.000000
vn 0.000000 -1.000000 0.000000
vn 0.000000 -1.000000 0.000000
vn 0.000000 -1.000000 -0.000001
vn -0.000000 1.000000 0.000000
vn -0.000000 1.000000 0.000001
vn 0.000000 1.000000 -0.000000
vn -0.000000 1.000000 0.000000
vn -0.000000 1.000000 0.000000
vn -0.000000 1.000000 0.000000
vn -0.000000 1.000000 0.000000
vn -0.000000 1.000000 0.000000
vn -0.000000 1.000000 0.000000
vn -0.000000 1.000000 0.000001
vn -0.000000 1.000000 0.000000
vn 0.000000 1.000000 -0.000001
vn -0.000000 1.000000 0.000000
vn -0.000000 1.000000 0.000000
vn -0.000000 1.000000 0.000000
vn 0.000000 1.000000 -0.000000
vn 0.000000 1.000000 -0.000000
vn -0.000000 1.000000 0.000000
vn -0.000000 1.000000 0.000000
vn -0.000000 1.000000 0.000000
vn 0.000000 1.000000 -0.000001
vn -0.348823 -0.008729 0.937148
vn -0.743476 -0.045638 0.667203
vn -0.944816 -0.154251 0.289013
vn -0.962827 -0.269708 -0.014863
vn -0.913374 -0.346437 -0.213845
vn -0.854830 -0.374922 -0.358748
vn -0.791588 -0.354818 -0.497487
vn -0.691952 -0.286266 -0.662763
vn -0.485162 -0.175674 -0.856596
vn -0.099866 -0.060690 -0.993148
vn 0.373952 -0.009019 -0.927404
vn 0.732265 -0.032304 -0.680253
vn 0.920214 -0.084566 -0.382170
vn 0.986096 -0.131882 -0.101101
vn 0.975267 -0.162423 0.149911
vn 0.910665 -0.173781 0.374820
vn 0.798521 -0.165774 0.578691
vn 0.632848 -0.138503 0.761788
vn 0.396813 -0.093664 0.913108
vn 0.068057 -0.040608 0.996855
s 1
g pCylinder4
usemtl lambert4SG
f 43/105/83 44/106/84 98/182/85 99/184/86
f 44/106/84 45/107/87 97/181/88 98/182/85
f 45/107/87 46/108/89 96/180/90 97/181/88
f 46/108/89 47/109/91 95/179/92 96/180/90
f 47/109/91 48/110/93 94/178/94 95/179/92
f 48/110/93 49/111/95 93/177/96 94/178/94
f 49/111/95 50/112/97 92/176/98 93/177/96
f 50/112/97 51/113/99 91/175/100 92/176/98
f 51/113/99 52/114/101 90/174/102 91/175/100
f 52/114/101 53/115/103 89/173/104 90/174/102
f 53/115/103 54/116/105 88/172/106 89/173/104
f 54/116/105 55/117/107 87/171/108 88/172/106
f 55/117/107 56/118/109 86/170/110 87/171/108
f 56/118/109 57/119/111 85/169/112 86/170/110
f 57/119/111 58/120/113 104/189/114 85/169/112
f 58/120/113 59/121/115 103/188/116 104/189/114
f 59/121/115 60/122/117 102/187/118 103/188/116
f 60/122/117 61/123/119 101/186/120 102/187/118
f 61/123/119 62/124/121 100/185/122 101/186/120
f 62/124/121 43/125/83 99/183/86 100/185/122
s 2
f 44/86/123 43/85/124 83/167/125
f 45/87/126 44/86/123 83/167/125
f 46/88/127 45/87/126 83/167/125
f 47/89/128 46/88/127 83/167/125
f 48/90/129 47/89/128 83/167/125
f 49/91/130 48/90/129 83/167/125
f 50/92/131 49/91/130 83/167/125
f 51/93/132 50/92/131 83/167/125
f 52/94/133 51/93/132 83/167/125
f 53/95/134 52/94/133 83/167/125
f 54/96/135 53/95/134 83/167/125
f 55/97/136 54/96/135 83/167/125
f 56/98/137 55/97/136 83/167/125
f 57/99/138 56/98/137 83/167/125
f 58/100/139 57/99/138 83/167/125
f 59/101/140 58/100/139 83/167/125
f 60/102/141 59/101/140 83/167/125
f 61/103/142 60/102/141 83/167/125
f 62/104/143 61/103/142 83/167/125
f 43/85/124 62/104/143 83/167/125
s 3
f 63/165/144 64/164/145 84/168/146
f 64/164/145 65/163/147 84/168/146
f 65/163/147 66/162/148 84/168/146
f 66/162/148 67/161/149 84/168/146
f 67/161/149 68/160/150 84/168/146
f 68/160/150 69/159/151 84/168/146
f 69/159/151 70/158/152 84/168/146
f 70/158/152 71/157/153 84/168/146
f 71/157/153 72/156/154 84/168/146
f 72/156/154 73/155/155 84/168/146
f 73/155/155 74/154/156 84/168/146
f 74/154/156 75/153/157 84/168/146
f 75/153/157 76/152/158 84/168/146
f 76/152/158 77/151/159 84/168/146
f 77/151/159 78/150/160 84/168/146
f 78/150/160 79/149/161 84/168/146
f 79/149/161 80/148/162 84/168/146
f 80/148/162 81/147/163 84/168/146
f 81/147/163 82/166/164 84/168/146
f 82/166/164 63/165/144 84/168/146
s 1
f 86/170/110 85/169/112 77/140/165 76/139/166
f 87/171/108 86/170/110 76/139/166 75/138/167
f 88/172/106 87/171/108 75/138/167 74/137/168
f 89/173/104 88/172/106 74/137/168 73/136/169
f 90/174/102 89/173/104 73/136/169 72/135/170
f 91/175/100 90/174/102 72/135/170 71/134/171
f 92/176/98 91/175/100 71/134/171 70/133/172
f 93/177/96 92/176/98 70/133/172 69/132/173
f 94/178/94 93/177/96 69/132/173 68/131/174
f 95/179/92 94/178/94 68/131/174 67/130/175
f 96/180/90 95/179/92 67/130/175 66/129/176
f 97/181/88 96/180/90 66/129/176 65/128/177
f 98/182/85 97/181/88 65/128/177 64/127/178
f 99/184/86 98/182/85 64/127/178 63/126/179
f 100/185/122 99/183/86 63/146/179 82/145/180
f 101/186/120 100/185/122 82/145/180 81/144/181
f 102/187/118 101/186/120 81/144/181 80/143/182
f 103/188/116 102/187/118 80/143/182 79/142/183
f 104/189/114 103/188/116 79/142/183 78/141/184
f 85/169/112 104/189/114 78/141/184 77/140/165
