# This file uses feet as units for non-parametric coordinates.

mtllib realhammer.mtl
g default
v 21.690224 25.885776 1.447898
v 21.614663 25.885776 -1.599163
v 19.391075 25.885776 1.504914
v 19.315518 25.885776 -1.542149
v 22.007085 42.696459 -1.608893
v 22.144399 42.696459 1.436636
v 18.936906 42.696459 1.516175
v 18.923098 42.696459 -1.532418
v 19.666745 34.398165 1.498078
v 21.414555 34.398165 1.454733
v 21.464569 34.398165 -1.595441
v 19.465615 34.398165 -1.545871
v 18.865690 26.799528 2.090382
v 22.243990 26.799528 2.006603
v 22.471856 26.799528 -2.192859
v 18.429952 26.799528 -2.092625
v 19.290502 47.656782 1.316273
v 21.786552 47.656782 1.254376
v 21.686336 47.656782 -1.409564
v 19.258546 47.656782 -1.349357
vt 0.295534 0.321640
vt 0.515885 0.314250
vt 0.514574 0.482359
vt 0.314195 0.491681
vt 0.248325 0.493101
vt 0.127908 0.478004
vt 0.125895 0.316016
vt 0.185314 0.315076
vt 0.250130 0.143959
vt 0.123702 0.142828
vt 0.141797 0.120488
vt 0.297346 0.142941
vt 0.193444 0.166006
vt 0.445067 0.158905
vt 0.335184 0.156460
vt 0.111521 0.166934
vt 0.456301 0.582508
vt 0.257880 0.594854
vt 0.360000 0.586308
vt 0.132577 0.574807
vt 0.184506 0.574257
vt 0.187293 0.477344
vt 0.418471 0.154864
vt 0.192051 0.113833
vt 0.400090 0.132999
vt 0.530085 0.159475
vt 0.359239 0.313027
vt 0.308904 0.164837
vt 0.454219 0.313561
vt 0.239527 0.166333
vt 0.158758 0.095799
vt 0.183041 0.144947
vt 0.400429 0.312238
vt 0.259641 0.322414
vt 0.517328 0.134518
vt 0.352714 0.133906
vt 0.455761 0.137002
vt 0.107832 0.102695
vt 0.410026 0.585350
vt 0.510192 0.582830
vt 0.414882 0.482964
vt 0.309140 0.593749
vt 0.351334 0.484181
vt 0.452946 0.481960
vn 0.999159 0.037674 0.016172
vn 0.999220 0.036209 0.015782
vn 0.999259 -0.030925 -0.022901
vn 0.999263 -0.030798 -0.022925
vn -0.999182 -0.030425 0.026625
vn -0.999178 -0.030545 0.026647
vn -0.997209 0.036209 0.065289
vn -0.997130 0.037674 0.065675
vn 0.000000 -1.000000 -0.000000
vn 0.000000 -1.000000 -0.000000
vn 0.000000 -1.000000 -0.000000
vn 0.000000 -1.000000 -0.000000
vn -0.024770 0.041116 -0.998847
vn -0.024770 0.041116 -0.998847
vn -0.024787 0.015427 -0.999574
vn -0.024787 0.015509 -0.999572
vn 0.024775 0.036512 0.999026
vn 0.024775 0.036512 0.999026
vn 0.024787 0.017396 0.999541
vn 0.024787 0.017314 0.999543
vn 0.024791 -0.003002 0.999688
vn 0.024791 -0.003002 0.999688
vn 0.998441 0.042024 0.036747
vn 0.998748 0.034086 0.036604
vn -0.024788 0.013948 -0.999595
vn -0.024788 0.013948 -0.999595
vn -0.995706 0.034086 0.086062
vn -0.995392 0.042025 0.086190
vn 0.021011 -0.530777 0.847251
vn 0.021011 -0.530777 0.847251
vn 0.791582 -0.610837 0.016637
vn 0.791582 -0.610837 0.016637
vn -0.021010 -0.530777 -0.847251
vn -0.021010 -0.530777 -0.847251
vn -0.789785 -0.610836 0.055852
vn -0.789785 -0.610835 0.055852
vn 0.024772 0.038492 0.998952
vn 0.024772 0.038492 0.998952
vn 0.996806 0.068255 -0.041470
vn 0.996806 0.068255 -0.041470
vn -0.024772 0.038541 -0.998950
vn -0.024772 0.038541 -0.998950
vn -0.997564 0.069300 0.007989
vn -0.997564 0.069300 0.007989
s 1
g pCube1 group3
usemtl lambert3SG
f 10/29/1 11/2/2 5/3/3 6/44/4
s 2
f 7/22/5 8/6/6 12/7/7 9/8/8
s off
f 3/31/9 4/24/10 2/11/11 1/38/12
s 3
f 11/27/13 12/33/14 8/41/15 5/43/16
s 4
f 9/34/17 10/1/18 6/4/19 7/5/20
f 13/30/21 14/28/22 10/1/18 9/34/17
s 1
f 14/14/23 15/26/24 11/2/2 10/29/1
s 3
f 15/15/25 16/23/26 12/33/14 11/27/13
s 2
f 9/8/8 12/7/7 16/16/27 13/13/28
s 4
f 3/9/29 1/12/30 14/28/22 13/30/21
s 1
f 1/37/31 2/35/32 15/26/24 14/14/23
s 3
f 2/36/33 4/25/34 16/23/26 15/15/25
s 2
f 13/13/28 16/16/27 4/10/35 3/32/36
s 4
f 7/5/20 6/4/19 18/42/37 17/18/38
s 1
f 6/44/4 5/3/3 19/40/39 18/17/40
s 3
f 5/43/16 8/41/15 20/39/41 19/19/42
s 2
f 17/21/43 20/20/44 8/6/6 7/22/5
g default
v 21.677290 47.426301 -0.478131
v 21.497190 47.426301 -0.831586
v 21.216687 47.426301 -1.112089
v 20.863235 47.426301 -1.292183
v 20.471429 47.426301 -1.354238
v 20.079620 47.426301 -1.292183
v 19.726171 47.426301 -1.112089
v 19.445664 47.426301 -0.831586
v 19.265568 47.426301 -0.478133
v 19.203515 47.426301 -0.086324
v 19.265568 47.426301 0.305483
v 19.445660 47.426301 0.658934
v 19.726167 47.426301 0.939441
v 20.079620 47.426301 1.119530
v 20.471427 47.426301 1.181588
v 20.863235 47.426301 1.119533
v 21.216687 47.426301 0.939439
v 21.497190 47.426301 0.658936
v 21.677283 47.426301 0.305482
v 21.739340 47.426301 -0.086325
v 21.677290 57.321387 -0.478131
v 21.497190 57.321387 -0.831586
v 21.216687 57.321387 -1.112089
v 20.863235 57.321387 -1.292183
v 20.471429 57.321387 -1.354238
v 20.079620 57.321387 -1.292183
v 19.726171 57.321387 -1.112089
v 19.445664 57.321387 -0.831586
v 19.265568 57.321387 -0.478133
v 19.203515 57.321387 -0.086324
v 19.265568 57.321387 0.305483
v 19.445660 57.321387 0.658934
v 19.726167 57.321387 0.939441
v 20.079620 57.321387 1.119530
v 20.471427 57.321387 1.181588
v 20.863235 57.321387 1.119533
v 21.216687 57.321387 0.939439
v 21.497190 57.321387 0.658936
v 21.677283 57.321387 0.305482
v 21.739340 57.321387 -0.086325
v 20.471427 46.818860 -0.086326
v 20.471427 56.100188 -0.086326
vt 0.657701 0.139991
vt 0.667071 0.140060
vt 0.665343 0.373804
vt 0.655972 0.373735
vt 0.676442 0.140130
vt 0.674714 0.373874
vt 0.685813 0.140199
vt 0.684085 0.373943
vt 0.695183 0.140268
vt 0.693455 0.374012
vt 0.704554 0.140337
vt 0.757418 0.373224
vt 0.766712 0.138768
vt 0.766817 0.373220
vt 0.776111 0.138764
vt 0.776216 0.373216
vt 0.785510 0.138760
vt 0.785615 0.373212
vt 0.794909 0.138756
vt 0.795014 0.373208
vt 0.804308 0.138751
vt 0.804413 0.373203
vt 0.813707 0.138747
vt 0.813812 0.373199
vt 0.823107 0.138743
vt 0.823211 0.373195
vt 0.832506 0.138739
vt 0.832610 0.373191
vt 0.841905 0.138735
vt 0.842010 0.373187
vt 0.851304 0.138730
vt 0.609119 0.373389
vt 0.620218 0.139714
vt 0.618490 0.373458
vt 0.629588 0.139783
vt 0.627861 0.373527
vt 0.638959 0.139853
vt 0.637231 0.373597
vt 0.648330 0.139922
vt 0.646602 0.373666
vt 0.757313 0.138772
vt 0.702826 0.374082
vt 0.610847 0.139645
vt 0.851409 0.373182
vn 0.951056 0.000000 -0.309017
vn 0.809014 0.000000 -0.587790
vn 0.809014 0.000000 -0.587790
vn 0.951056 0.000000 -0.309017
vn 0.587787 0.000000 -0.809016
vn 0.587787 0.000000 -0.809016
vn 0.309017 0.000000 -0.951057
vn 0.309017 0.000000 -0.951057
vn -0.000000 0.000000 -1.000000
vn -0.000000 0.000000 -1.000000
vn -0.309017 0.000000 -0.951056
vn -0.309017 0.000000 -0.951056
vn -0.587786 0.000000 -0.809016
vn -0.587786 0.000000 -0.809016
vn -0.809013 0.000000 -0.587791
vn -0.809013 0.000000 -0.587791
vn -0.951057 0.000000 -0.309015
vn -0.951057 0.000000 -0.309015
vn -1.000000 0.000000 0.000000
vn -1.000000 0.000000 0.000000
vn -0.951058 0.000000 0.309012
vn -0.951058 0.000000 0.309012
vn -0.809016 0.000000 0.587786
vn -0.809016 0.000000 0.587786
vn -0.587782 0.000000 0.809019
vn -0.587782 0.000000 0.809019
vn -0.309014 0.000000 0.951057
vn -0.309014 0.000000 0.951057
vn -0.000004 0.000000 1.000000
vn -0.000004 0.000000 1.000000
vn 0.309016 0.000000 0.951057
vn 0.309016 0.000000 0.951057
vn 0.587787 0.000000 0.809016
vn 0.587787 0.000000 0.809016
vn 0.809018 0.000000 0.587784
vn 0.809018 0.000000 0.587784
vn 0.951056 0.000000 0.309017
vn 0.951056 0.000000 0.309017
vn 1.000000 0.000000 0.000010
vn 1.000000 0.000000 0.000010
vn 0.349544 -0.901844 -0.253961
vn 0.410914 -0.901845 -0.133514
vn -0.000000 -1.000000 -0.000000
vn 0.253960 -0.901844 -0.349545
vn 0.133514 -0.901844 -0.410915
vn -0.000000 -0.901844 -0.432062
vn -0.133514 -0.901844 -0.410915
vn -0.253960 -0.901844 -0.349545
vn -0.349544 -0.901844 -0.253962
vn -0.410915 -0.901844 -0.133513
vn -0.432062 -0.901844 0.000000
vn -0.410915 -0.901845 0.133512
vn -0.349544 -0.901844 0.253960
vn -0.253958 -0.901845 0.349545
vn -0.133513 -0.901844 0.410915
vn -0.000002 -0.901844 0.432061
vn 0.133514 -0.901845 0.410914
vn 0.253960 -0.901845 0.349544
vn 0.349546 -0.901844 0.253959
vn 0.410915 -0.901844 0.133514
vn 0.432062 -0.901844 0.000003
vn -0.659760 0.720252 0.214369
vn -0.561225 0.720250 0.407757
vn -0.000000 1.000000 0.000000
vn -0.407756 0.720250 0.561226
vn -0.214369 0.720250 0.659761
vn 0.000000 0.720250 0.693715
vn 0.214370 0.720250 0.659761
vn 0.407756 0.720250 0.561227
vn 0.561224 0.720250 0.407758
vn 0.659761 0.720251 0.214368
vn 0.693714 0.720250 0.000000
vn 0.659762 0.720251 -0.214366
vn 0.561226 0.720251 -0.407755
vn 0.407753 0.720251 -0.561227
vn 0.214368 0.720250 -0.659763
vn 0.000003 0.720250 -0.693714
vn -0.214369 0.720251 -0.659761
vn -0.407756 0.720251 -0.561225
vn -0.561227 0.720250 -0.407754
vn -0.659762 0.720250 -0.214370
vn -0.693715 0.720250 -0.000006
s 1
g group3 pCylinder1
usemtl lambert2SG
f 21/45/45 22/46/46 42/47/47 41/48/48
f 22/46/46 23/49/49 43/50/50 42/47/47
f 23/49/49 24/51/51 44/52/52 43/50/50
f 24/51/51 25/53/53 45/54/54 44/52/52
f 25/53/53 26/55/55 46/86/56 45/54/54
f 26/85/55 27/57/57 47/58/58 46/56/56
f 27/57/57 28/59/59 48/60/60 47/58/58
f 28/59/59 29/61/61 49/62/62 48/60/60
f 29/61/61 30/63/63 50/64/64 49/62/62
f 30/63/63 31/65/65 51/66/66 50/64/64
f 31/65/65 32/67/67 52/68/68 51/66/66
f 32/67/67 33/69/69 53/70/70 52/68/68
f 33/69/69 34/71/71 54/72/72 53/70/70
f 34/71/71 35/73/73 55/74/74 54/72/72
f 35/73/73 36/75/75 56/88/76 55/74/74
f 36/87/75 37/77/77 57/78/78 56/76/76
f 37/77/77 38/79/79 58/80/80 57/78/78
f 38/79/79 39/81/81 59/82/82 58/80/80
f 39/81/81 40/83/83 60/84/84 59/82/82
f 40/83/83 21/45/45 41/48/48 60/84/84
s 2
f 22//85 21//86 61//87
f 23//88 22//85 61//87
f 24//89 23//88 61//87
f 25//90 24//89 61//87
f 26//91 25//90 61//87
f 27//92 26//91 61//87
f 28//93 27//92 61//87
f 29//94 28//93 61//87
f 30//95 29//94 61//87
f 31//96 30//95 61//87
f 32//97 31//96 61//87
f 33//98 32//97 61//87
f 34//99 33//98 61//87
f 35//100 34//99 61//87
f 36//101 35//100 61//87
f 37//102 36//101 61//87
f 38//103 37//102 61//87
f 39//104 38//103 61//87
f 40//105 39//104 61//87
f 21//86 40//105 61//87
s 3
f 41//106 42//107 62//108
f 42//107 43//109 62//108
f 43//109 44//110 62//108
f 44//110 45//111 62//108
f 45//111 46//112 62//108
f 46//112 47//113 62//108
f 47//113 48//114 62//108
f 48//114 49//115 62//108
f 49//115 50//116 62//108
f 50//116 51//117 62//108
f 51//117 52//118 62//108
f 52//118 53//119 62//108
f 53//119 54//120 62//108
f 54//120 55//121 62//108
f 55//121 56//122 62//108
f 56//122 57//123 62//108
f 57//123 58//124 62//108
f 58//124 59//125 62//108
f 59//125 60//126 62//108
f 60//126 41//106 62//108
g default
v 15.329389 60.676110 -0.692662
v 15.305222 60.405973 -1.202602
v 15.284602 59.987844 -1.605841
v 15.269543 59.462675 -1.862908
v 15.261517 58.881834 -1.948693
v 15.261317 58.302237 -1.854750
v 15.268951 57.780593 -1.590287
v 15.283683 57.367921 -1.181186
v 15.304071 57.104666 -0.667518
v 15.328115 57.016612 -0.099542
v 15.353454 57.112317 0.467143
v 15.377622 57.382476 0.977074
v 15.398244 57.800583 1.380296
v 15.413305 58.325789 1.637393
v 15.421329 58.906585 1.723163
v 15.421533 59.486189 1.629212
v 15.413888 60.007860 1.364750
v 15.399158 60.420525 0.955661
v 15.378774 60.683757 0.441981
v 15.354735 60.771826 -0.125979
v 15.416839 58.893901 -0.116035
v 18.977039 59.890799 1.087192
v 18.984064 59.411377 1.330238
v 18.983878 58.878703 1.416571
v 18.976505 58.344935 1.337735
v 18.962655 57.862311 1.101479
v 18.943711 57.478069 0.730909
v 18.921495 57.229804 0.262288
v 18.898210 57.141856 -0.258494
v 18.876118 57.222761 -0.780452
v 18.857377 57.464713 -1.252531
v 18.843838 57.843926 -1.628474
v 18.836832 58.323318 -1.871511
v 18.837010 58.855978 -1.957855
v 18.844377 59.389757 -1.879023
v 18.858218 59.872374 -1.642751
v 18.877169 60.256641 -1.272196
v 18.899379 60.504903 -0.803587
v 18.922676 60.592872 -0.282801
v 18.944768 60.511908 0.239179
v 18.963504 60.270019 0.711243
vt 0.385699 0.842701
vt 0.365758 0.840858
vt 0.110235 0.751178
vt 0.345667 0.839268
vt 0.325430 0.837928
vt 0.305100 0.836839
vt 0.284758 0.836005
vt 0.264486 0.835430
vt 0.244333 0.835116
vt 0.224308 0.835067
vt 0.204363 0.835286
vt 0.184422 0.835774
vt 0.164410 0.836536
vt 0.144284 0.837573
vt 0.124044 0.838883
vt 0.103747 0.840463
vt 0.083472 0.842307
vt 0.063299 0.844407
vt 0.043283 0.846760
vt 0.425339 0.847178
vt 0.405535 0.844804
vt 0.095555 0.965703
vt 0.077017 0.967633
vt 0.114189 0.964008
vt 0.132843 0.962556
vt 0.151441 0.961352
vt 0.169938 0.960399
vt 0.188329 0.959699
vt 0.206654 0.959250
vt 0.224983 0.959049
vt 0.243387 0.959094
vt 0.261906 0.959382
vt 0.280536 0.959912
vt 0.299230 0.960678
vt 0.317914 0.961678
vt 0.336511 0.962909
vt 0.354974 0.964371
vt 0.373300 0.966064
vt 0.391529 0.967997
vt 0.409730 0.970179
vt 0.058622 0.969795
vt 0.427970 0.972617
vt 0.151162 0.797576
vt 0.445188 0.849831
vt 0.116745 0.813160
vt 0.097679 0.812095
vt 0.135174 0.808157
vt 0.163144 0.782452
vt 0.169947 0.764265
vt 0.170905 0.744797
vt 0.165923 0.725953
vt 0.155490 0.709577
vt 0.140627 0.697273
vt 0.122789 0.690244
vt 0.103722 0.689180
vt 0.085293 0.694182
vt 0.069305 0.704764
vt 0.057323 0.719888
vt 0.050520 0.738074
vt 0.049562 0.757542
vt 0.054545 0.776387
vt 0.064977 0.792763
vt 0.079840 0.805067
vn -0.997941 -0.030756 0.056286
vn -0.997395 -0.025009 0.067654
vn -0.999029 0.007386 0.043431
vn -0.996926 -0.016079 0.076682
vn -0.996583 -0.004820 0.082462
vn -0.996403 0.007657 0.084397
vn -0.996406 0.020112 0.082281
vn -0.996591 0.031291 0.076342
vn -0.996934 0.040089 0.067195
vn -0.997399 0.045679 0.055748
vn -0.997938 0.047543 0.043112
vn -0.998498 0.045511 0.030509
vn -0.999026 0.039767 0.019143
vn -0.999473 0.030839 0.010113
vn -0.999799 0.019585 0.004330
vn -0.999972 0.007109 0.002392
vn -0.999976 -0.005348 0.004505
vn -0.999809 -0.016527 0.010441
vn -0.999487 -0.025330 0.019593
vn -0.999039 -0.030926 0.031046
vn -0.998507 -0.032790 0.043681
vn 0.085979 0.308812 0.947229
vn 0.082094 0.584060 0.807548
vn 0.082092 0.584142 0.807489
vn 0.085979 0.308889 0.947204
vn 0.085791 0.006393 0.996293
vn 0.085791 0.006419 0.996292
vn 0.081612 -0.296656 0.951491
vn 0.081611 -0.296687 0.951481
vn 0.073742 -0.573753 0.815702
vn 0.073741 -0.573802 0.815668
vn 0.062736 -0.798467 0.598761
vn 0.062735 -0.798486 0.598736
vn 0.049493 -0.946363 0.319293
vn 0.049495 -0.946347 0.319340
vn 0.035286 -0.999364 0.005128
vn 0.035293 -0.999363 0.005287
vn 0.021635 -0.950570 -0.309757
vn 0.021645 -0.950646 -0.309521
vn 0.010037 -0.806423 -0.591255
vn 0.010046 -0.806590 -0.591026
vn 0.001693 -0.584669 -0.811270
vn 0.001698 -0.584863 -0.811130
vn -0.002634 -0.309435 -0.950917
vn -0.002633 -0.309554 -0.950878
vn -0.002613 -0.007032 -0.999972
vn -0.002613 -0.007006 -0.999972
vn 0.001734 0.295986 -0.955190
vn 0.001738 0.296153 -0.955139
vn 0.010049 0.573066 -0.819448
vn 0.010058 0.573295 -0.819287
vn 0.021613 0.797777 -0.602565
vn 0.021625 0.797965 -0.602315
vn 0.035314 0.945694 -0.323135
vn 0.035326 0.945780 -0.322883
vn 0.049700 0.998724 -0.008962
vn 0.049707 0.998725 -0.008804
vn 0.063175 0.949958 0.305923
vn 0.063176 0.949948 0.305953
vn 0.074311 0.805842 0.587449
vn 0.074309 0.805879 0.587398
s 1
g group3 pCylinder2
usemtl blinn2SG
f 63/134/127 64/151/128 83/91/129
f 64/151/128 65/150/130 83/91/129
f 65/150/130 66/149/131 83/91/129
f 66/149/131 67/148/132 83/91/129
f 67/148/132 68/147/133 83/91/129
f 68/147/133 69/146/134 83/91/129
f 69/146/134 70/145/135 83/91/129
f 70/145/135 71/144/136 83/91/129
f 71/144/136 72/143/137 83/91/129
f 72/143/137 73/142/138 83/91/129
f 73/142/138 74/141/139 83/91/129
f 74/141/139 75/140/140 83/91/129
f 75/140/140 76/139/141 83/91/129
f 76/139/141 77/138/142 83/91/129
f 77/138/142 78/137/143 83/91/129
f 78/137/143 79/136/144 83/91/129
f 79/136/144 80/131/145 83/91/129
f 80/131/145 81/135/146 83/91/129
f 81/135/146 82/133/147 83/91/129
f 82/133/147 63/134/127 83/91/129
s 2
f 85/110/148 84/111/149 79/106/150 78/105/151
f 86/112/152 85/110/148 78/105/151 77/104/153
f 87/113/154 86/112/152 77/104/153 76/103/155
f 88/114/156 87/113/154 76/103/155 75/102/157
f 89/115/158 88/114/156 75/102/157 74/101/159
f 90/116/160 89/115/158 74/101/159 73/100/161
f 91/117/162 90/116/160 73/100/161 72/99/163
f 92/118/164 91/117/162 72/99/163 71/98/165
f 93/119/166 92/118/164 71/98/165 70/97/167
f 94/120/168 93/119/166 70/97/167 69/96/169
f 95/121/170 94/120/168 69/96/169 68/95/171
f 96/122/172 95/121/170 68/95/171 67/94/173
f 97/123/174 96/122/172 67/94/173 66/93/175
f 98/124/176 97/123/174 66/93/175 65/92/177
f 99/125/178 98/124/176 65/92/177 64/90/179
f 100/126/180 99/125/178 64/90/179 63/89/181
f 101/127/182 100/126/180 63/89/181 82/109/183
f 102/128/184 101/127/182 82/109/183 81/108/185
f 103/130/186 102/128/184 81/108/185 80/132/187
f 84/111/149 103/129/186 80/107/187 79/106/150
g default
v 17.271048 57.647889 1.237580
v 22.200141 57.601978 1.408100
v 17.271048 60.785679 1.237580
v 23.279851 61.040605 1.453598
v 17.179704 60.785679 -1.854826
v 23.014552 61.102063 -2.038616
v 17.179704 57.647889 -1.854826
v 22.102448 57.601978 -1.898841
v 18.296675 61.127393 1.482314
v 18.192060 61.127393 -2.059723
v 18.193967 56.988001 -1.995004
v 18.296675 56.988001 1.482315
v 29.808061 58.286874 -1.578207
v 29.880389 58.286874 0.871123
v 30.309621 58.130955 -1.548330
v 30.383752 58.126710 0.824305
v 28.056933 59.745493 1.069567
v 27.920026 59.702815 -1.695552
v 26.230584 58.803473 -1.599121
v 26.313317 58.803473 1.202063
v 30.347827 58.128769 -0.325613
v 27.990579 59.724805 -0.270569
v 23.151268 61.070390 -0.238932
v 18.245974 61.127393 -0.234362
v 17.226781 60.785679 -0.261179
v 17.226781 57.647889 -0.261179
v 18.246900 56.988001 -0.202995
v 22.152792 57.601978 -0.194632
v 26.551695 58.803473 -0.182123
v 29.566862 58.286874 -0.289396
vt 0.741270 0.745339
vt 0.748293 0.720759
vt 0.954493 0.916976
vt 0.600064 0.933223
vt 0.614399 0.954544
vt 0.709487 0.808964
vt 0.676824 0.808841
vt 0.613147 0.980604
vt 0.588319 0.830515
vt 0.677617 0.740686
vt 0.710159 0.744328
vt 0.588059 0.863887
vt 0.808429 0.891990
vt 0.803484 0.870172
vt 0.818336 0.870045
vt 0.797752 0.943067
vt 0.952003 0.798404
vt 0.684473 0.955904
vt 0.682040 0.981579
vt 0.497643 0.782707
vt 0.661611 0.866766
vt 0.661369 0.896614
vt 0.746477 0.870076
vt 0.741205 0.895692
vt 0.754990 0.977904
vt 0.741615 0.843469
vt 0.920593 0.684526
vt 0.756218 0.957556
vt 0.795896 0.976931
vt 0.808800 0.846346
vt 0.599037 0.954620
vt 0.581322 0.669835
vt 0.796851 0.959479
vt 0.898393 0.726252
vt 0.885641 0.641074
vt 0.757372 0.938418
vt 0.818285 0.891447
vt 0.881765 0.629065
vt 0.686760 0.931758
vt 0.870263 0.824383
vt 0.855995 0.917338
vt 0.615575 0.930035
vt 0.677219 0.744376
vt 0.946454 0.942096
vt 0.740184 0.809795
vt 0.871789 0.942371
vt 0.519403 0.883373
vt 0.501983 0.967976
vt 0.538567 0.924964
vt 0.497517 0.979727
vt 0.818547 0.847283
vt 0.579743 0.809937
vt 0.661850 0.835027
vt 0.489195 0.688513
vt 0.587913 0.694983
vt 0.597944 0.977372
vt 0.506490 0.665098
vt 0.714223 0.719446
vt 0.587811 0.895273
vt 0.677554 0.715784
vn -0.232103 0.000000 0.972691
vn -0.023855 -0.006612 0.999694
vn -0.027377 -0.006503 0.999604
vn -0.232103 0.000000 0.972691
vn -0.318096 0.948012 0.009394
vn -0.042813 0.999049 0.008281
vn -0.045333 0.998936 0.008412
vn -0.318095 0.948012 0.009395
vn -0.169192 -0.008809 -0.985544
vn -0.013846 -0.025517 -0.999578
vn -0.011478 -0.025766 -0.999602
vn -0.169192 -0.008809 -0.985544
vn -0.543717 -0.839115 0.016059
vn -0.005380 -0.999986 0.000159
vn -0.007418 -0.999973 0.000218
vn -0.543717 -0.839115 0.016058
vn -0.238242 -0.970569 0.035168
vn -0.238150 -0.971195 0.008088
vn -0.238128 -0.971221 0.004982
vn -0.238242 -0.970569 0.035168
vn -0.999564 0.000000 0.029525
vn -0.999564 0.000000 0.029521
vn -0.999564 0.000000 0.029521
vn -0.999564 0.000000 0.029525
vn 0.133493 0.991047 -0.002464
vn 0.135032 0.990838 -0.002610
vn 0.038966 -0.057549 -0.997582
vn 0.028075 -0.044192 -0.998628
vn 0.214210 -0.976770 -0.005795
vn 0.211220 -0.977421 0.005884
vn 0.023774 -0.010981 0.999657
vn 0.036406 -0.014492 0.999232
vn 0.058758 -0.998269 -0.002378
vn 0.162814 -0.986553 0.014282
vn 0.038256 -0.089946 -0.995212
vn 0.065902 -0.093551 -0.993431
vn 0.356986 0.933920 -0.018815
vn 0.364743 0.930909 -0.019268
vn 0.066903 -0.022811 0.997499
vn 0.076070 -0.023831 0.996818
vn 0.564350 0.825014 -0.029353
vn 0.559472 0.828335 -0.029177
vn -0.001548 -0.084641 -0.996410
vn -0.001548 -0.084641 -0.996410
vn -0.154770 -0.987940 0.004571
vn -0.154770 -0.987940 0.004570
vn 0.088227 -0.025181 0.995782
vn 0.088227 -0.025181 0.995782
vn 0.365787 0.930497 -0.019375
vn 0.555261 0.831170 -0.029025
vn 0.132758 0.991146 -0.002426
vn -0.041157 0.999116 0.008519
vn -0.318095 0.948012 0.009395
vn -0.999564 0.000000 0.029529
vn -0.999564 0.000000 0.029529
vn -0.543716 -0.839116 0.016060
vn 0.009836 -0.999952 -0.000291
vn 0.215674 -0.976283 -0.018888
vn 0.143300 -0.989448 -0.021414
vn -0.154770 -0.987940 0.004571
vn -0.237869 -0.971090 -0.020070
vn -0.237869 -0.971090 -0.020070
s 1
g pCube6
usemtl blinn2SG
f 104/197/188 115/192/189 112/154/190 106/195/191
s 2
f 106/155/192 112/193/193 127/156/194 128/182/195
s 3
f 108/183/196 113/206/197 114/205/198 110/208/199
s 4
f 129/162/200 130/209/201 115/153/202 104/152/203
s 5
f 117/164/204 133/165/205 124/166/206 119/188/207
s 6
f 129/162/208 104/152/209 106/196/210 128/157/211
s 2
f 112/193/193 107/190/212 126/169/213 127/156/194
s 3
f 114/205/198 113/206/197 109/203/214 111/171/215
s 4
f 115/210/202 130/163/201 131/172/216 105/173/217
s 1
f 112/154/190 115/192/189 105/191/218 107/168/219
s 4
f 105/173/217 131/172/216 132/174/220 123/175/221
s 3
f 111/171/215 109/203/214 121/200/222 122/198/223
s 2
f 126/169/213 107/190/212 120/187/224 125/179/225
s 1
f 107/168/219 105/191/218 123/185/226 120/178/227
s 2
f 125/179/225 120/187/224 119/167/228 124/184/229
s 3
f 122/198/223 121/200/222 118/201/230 116/199/231
s 4
f 123/175/221 132/174/220 133/165/232 117/164/233
s 1
f 120/178/227 123/185/226 117/186/234 119/189/235
s 2
f 121/176/236 125/179/225 124/184/229 118/180/237
f 109/170/238 126/169/213 125/179/225 121/176/236
f 127/156/194 126/169/213 109/170/238 113/159/239
f 128/182/195 127/156/194 113/159/239 108/207/240
s 6
f 110/194/241 129/162/208 128/157/211 108/158/242
s 4
f 110/161/243 114/211/244 130/209/201 129/162/200
f 131/172/216 130/163/201 114/160/244 111/204/245
f 132/174/220 131/172/216 111/204/245 122/177/246
f 133/165/232 132/174/220 122/177/246 116/181/247
s 5
f 124/166/206 133/165/205 116/181/248 118/202/249
